# File created by Blade
# Date/Time:  Wed Apr 08 14:47:20 2015
# Frame Rate: 120.000 fps
#------------------------------------------------------
:FULLY-SPECIFIED
:DEGREES
985
root -0.454640 34.379615 -7.709135 -43.199494 34.797345 -75.511189
Spine 22.205430 15.293099 39.867917
Head -56.846571 -28.969794 64.573169
LeftShoulder -14.466691 42.214910 20.082751
LeftArm 65.917887 2.800908 -70.454251
LeftForeArm -9.916839 -0.000000 136.788353
LeftHand 12.762119 -0.000000 13.332779
LeftHandThumb1 -26.253704 0.000000 33.147579
RightShoulder 6.770098 29.613484 -29.714283
RightArm 33.268006 -18.556663 101.237668
RightForeArm 5.638827 0.000000 111.339137
RightHand 17.538633 -0.000000 -31.386084
RightHandThumb1 -24.326973 -0.000000 -32.862282
LeftUpLeg -34.951707 23.454341 47.238208
LeftLeg 26.615294 -0.000000 -0.000000
LeftFoot -4.190834 1.527149 -20.129852
LeftToeBase -1.510338 -0.000000 0.000000
RightUpLeg -64.546511 -51.600393 -33.543780
RightLeg 58.605854 -0.000000 -0.000000
RightFoot 30.284285 -24.789349 -4.532488
RightToeBase 21.433730 -0.000000 -0.000000
986
root -0.374943 34.362121 -7.589436 -43.918765 34.431354 -76.287599
Spine 22.196547 15.368437 40.776623
Head -57.315245 -29.072007 64.734413
LeftShoulder -14.630941 42.593750 19.607560
LeftArm 65.433236 3.489335 -70.634964
LeftForeArm -10.206703 0.000000 136.688945
LeftHand 12.784359 -0.000000 12.788735
LeftHandThumb1 -26.253704 0.000000 33.147579
RightShoulder 7.078720 29.246887 -28.961058
RightArm 33.829602 -18.773399 100.560406
RightForeArm 5.329020 -0.000000 111.319294
RightHand 17.633068 -0.000000 -31.565947
RightHandThumb1 -24.326973 -0.000000 -32.862282
LeftUpLeg -34.978320 23.569615 47.966952
LeftLeg 27.064406 -0.000000 -0.000000
LeftFoot -4.465080 1.243825 -19.677271
LeftToeBase -2.022238 -0.000000 0.000000
RightUpLeg -57.874868 -51.289745 -37.898862
RightLeg 46.560360 -0.000000 -0.000000
RightFoot 29.824981 -25.318735 -4.936922
RightToeBase 19.440108 -0.000000 -0.000000
987
root -0.269531 34.341923 -7.414132 -44.940610 34.515615 -77.470385
Spine 21.581040 15.105645 41.240552
Head -57.523446 -29.317113 65.325120
LeftShoulder -14.595616 43.018851 19.469862
LeftArm 64.967042 4.220209 -70.777795
LeftForeArm -10.625518 -0.000000 136.607503
LeftHand 12.820608 0.000000 12.433281
LeftHandThumb1 -26.253704 0.000000 33.147579
RightShoulder 7.253362 28.528383 -27.809996
RightArm 34.335854 -19.133053 99.887573
RightForeArm 4.599371 -0.000000 111.328443
RightHand 17.624482 -0.000000 -31.589185
RightHandThumb1 -24.326973 -0.000000 -32.862282
LeftUpLeg -35.278396 23.241943 48.551719
LeftLeg 27.378650 -0.000000 -0.000000
LeftFoot -4.718030 0.895721 -19.252419
LeftToeBase -2.259723 -0.000000 0.000000
RightUpLeg -49.356021 -50.457585 -43.651367
RightLeg 33.612987 -0.000000 -0.000000
RightFoot 29.574085 -26.756769 -5.785383
RightToeBase 17.694606 -0.000000 -0.000000
988
root -0.162606 34.227198 -7.165752 -45.090093 36.874548 -78.868496
Spine 18.305528 14.528925 38.884106
Head -57.172453 -29.919291 66.919606
LeftShoulder -14.398681 43.718536 20.069438
LeftArm 64.500176 4.931166 -70.603847
LeftForeArm -11.367418 -0.000000 136.540571
LeftHand 12.957996 -0.000000 12.262424
LeftHandThumb1 -26.253704 0.000000 33.147579
RightShoulder 7.305347 27.187956 -25.695913
RightArm 34.854544 -19.846507 99.207348
RightForeArm 3.453858 0.000000 111.285310
RightHand 17.758329 -0.000000 -31.631629
RightHandThumb1 -24.326973 -0.000000 -32.862282
LeftUpLeg -37.807082 22.334698 46.861796
LeftLeg 27.895827 -0.000000 -0.000000
LeftFoot -5.207527 0.681026 -18.699822
LeftToeBase -3.178835 -0.000000 0.000000
RightUpLeg -39.289415 -51.049830 -52.359503
RightLeg 20.692617 -0.000000 -0.000000
RightFoot 29.399901 -28.032261 -6.918869
RightToeBase 17.859779 -0.000000 -0.000000
989
root -0.032133 34.175038 -6.904765 -45.846399 38.040264 -79.834871
Spine 16.720363 14.083255 37.586224
Head -57.071424 -30.305282 68.425600
LeftShoulder -14.133112 44.087814 20.565530
LeftArm 63.935092 5.571767 -70.558901
LeftForeArm -12.037787 0.000000 136.465398
LeftHand 13.154001 -0.000000 11.916666
LeftHandThumb1 -26.253704 0.000000 33.147579
RightShoulder 7.190160 26.011926 -23.843480
RightArm 35.208254 -20.497499 98.679660
RightForeArm 2.345352 0.000000 111.277582
RightHand 17.944770 0.000000 -31.685385
RightHandThumb1 -24.326973 -0.000000 -32.862282
LeftUpLeg -38.541904 21.699246 46.369102
LeftLeg 28.084165 -0.000000 -0.000000
LeftFoot -5.459533 0.400257 -18.173346
LeftToeBase -4.283135 -0.000000 0.000000
RightUpLeg -30.654487 -50.158850 -58.940149
RightLeg 8.521342 -0.000000 -0.000000
RightFoot 29.089273 -29.344065 -10.881129
RightToeBase 18.079252 -0.000000 -0.000000
